<svg id="Layer_1" data-name="Layer 1" xmlns="http://www.w3.org/2000/svg" width="300" height="100" viewBox="0 0 300 100"><defs><style>.cls-1{fill:#9498a5;}</style></defs><path id="Shape" class="cls-1" d="M88.7218,21.4684h12.7528c3.2422,0,5.62.8646,7.1329,2.3776a6.13,6.13,0,0,1,2.1615,4.7553h0a7.3552,7.3552,0,0,1-.2161,2.1615,9.0657,9.0657,0,0,1-1.9454,3.026,4.5208,4.5208,0,0,1-1.2969.8646,9.0442,9.0442,0,0,1,3.8907,2.3777,6.4539,6.4539,0,0,1,1.2969,4.323h0a7.8963,7.8963,0,0,1-.6484,3.2422,7.4771,7.4771,0,0,1-2.1615,2.3776,21.81,21.81,0,0,1-3.2423,1.5131,14.0022,14.0022,0,0,1-4.3229.4323H88.938V21.4684Zm11.6721,11.24a8.6728,8.6728,0,0,0,3.2422-.6484,2.3774,2.3774,0,0,0,1.2969-2.1615h0a2.66,2.66,0,0,0-1.0807-2.1615,3.7513,3.7513,0,0,0-3.0261-.6485H94.774v5.8361h5.62Zm1.513,11.0236a8.6726,8.6726,0,0,0,3.2422-.6485,2.0483,2.0483,0,0,0,1.0808-2.3776h0a2.66,2.66,0,0,0-1.0808-2.1615,6.6962,6.6962,0,0,0-3.4583-.8646H94.5579v6.0522Z"/><polygon id="Path" class="cls-1" points="120.063 21.468 126.116 21.468 126.116 49.135 120.063 49.135 120.063 21.468"/><polygon id="Path-2" data-name="Path" class="cls-1" points="135.41 21.468 141.03 21.468 153.999 38.544 153.999 21.468 160.051 21.468 160.051 49.135 154.863 49.135 141.246 31.627 141.246 49.135 135.41 49.135 135.41 21.468"/><path id="Shape-2" data-name="Shape" class="cls-1" d="M178.4236,21.2522h5.62l11.8882,27.8832h-6.2683L187.07,42.8671h-11.672l-2.5938,6.2683h-6.2683ZM184.908,37.68l-3.6745-9.0782L177.559,37.68Z"/><polygon id="Path-3" data-name="Path" class="cls-1" points="202.416 21.468 208.036 21.468 221.005 38.544 221.005 21.468 227.057 21.468 227.057 49.135 221.869 49.135 208.468 31.627 208.468 49.135 202.416 49.135 202.416 21.468"/><path id="Path-4" data-name="Path" class="cls-1" d="M249.1042,49.5677a16.2371,16.2371,0,0,1-5.62-1.0807,14.3849,14.3849,0,0,1-7.5652-7.5652,16.2376,16.2376,0,0,1-1.0807-5.62h0a15.177,15.177,0,0,1,4.1068-10.159,12.8758,12.8758,0,0,1,4.5391-3.0261,13.9661,13.9661,0,0,1,5.836-1.0807,18.5975,18.5975,0,0,1,3.4584.2161,10.7032,10.7032,0,0,1,2.81.8646,23.5838,23.5838,0,0,1,2.3777,1.2969,15.1527,15.1527,0,0,1,2.1615,1.7292l-3.6746,4.5391a30.921,30.921,0,0,0-3.2422-2.3776,7.1037,7.1037,0,0,0-3.6745-.8646,8.6733,8.6733,0,0,0-3.2423.6484,5.9008,5.9008,0,0,0-2.5937,1.9454,12.2541,12.2541,0,0,0-1.7292,2.81,8.6734,8.6734,0,0,0-.6485,3.2422h0a9.79,9.79,0,0,0,.6485,3.4584,7.6262,7.6262,0,0,0,1.7292,2.81,7.72,7.72,0,0,0,5.836,2.5937,9.3657,9.3657,0,0,0,4.1068-.8646,17.8891,17.8891,0,0,0,3.2422-2.3776l3.8907,3.8907-2.1615,2.1615a16.1286,16.1286,0,0,1-2.5937,1.513,12.5018,12.5018,0,0,1-3.0261,1.0808,26.2347,26.2347,0,0,1-3.8907.2161Z"/><polygon id="Path-5" data-name="Path" class="cls-1" points="267.693 21.468 288.443 21.468 288.443 26.872 273.529 26.872 273.529 32.492 286.714 32.492 286.714 37.896 273.529 37.896 273.529 43.732 288.659 43.732 288.659 49.135 267.693 49.135 267.693 21.468"/><path id="Path-6" data-name="Path" class="cls-1" d="M96.5032,76.37a9.6767,9.6767,0,0,1-4.323-.8646A12.588,12.588,0,0,1,88.29,73.1279L90.451,70.75a12.9973,12.9973,0,0,0,2.81,1.9453,8.673,8.673,0,0,0,3.2422.6485,5.7554,5.7554,0,0,0,2.5938-.6485,1.9659,1.9659,0,0,0,.8646-1.7292h0a1.3,1.3,0,0,0-.2162-.8646c-.2161-.2161-.4323-.6484-.6484-.8646L97.8,68.5888c-.6484-.2162-1.513-.4323-2.1615-.6485a13.9834,13.9834,0,0,1-2.81-.8645,5.6679,5.6679,0,0,1-1.9454-1.0808,9.3976,9.3976,0,0,1-1.2968-1.513,5.0666,5.0666,0,0,1-.4324-2.3777h0a9.1942,9.1942,0,0,1,.4323-2.3776,5.2022,5.2022,0,0,1,1.2969-1.7292,6.7607,6.7607,0,0,1,2.1615-1.0807,10.8469,10.8469,0,0,1,2.5938-.4323,12.24,12.24,0,0,1,3.8907.6484,23.6185,23.6185,0,0,1,3.2422,1.7292l-1.7292,2.5938a16.1185,16.1185,0,0,0-2.5938-1.5131,5.483,5.483,0,0,0-2.5938-.4323,4.3572,4.3572,0,0,0-2.3776.6485,2.6682,2.6682,0,0,0-.8646,1.7292h0a1.9481,1.9481,0,0,0,.2162,1.0807c.2161.2162.4323.6485.6484.8646a10.539,10.539,0,0,0,1.513.6485,17.5365,17.5365,0,0,0,2.3777.6484,20.0664,20.0664,0,0,1,2.81.8646,8.7593,8.7593,0,0,1,1.9454,1.0807,6.5669,6.5669,0,0,1,1.0807,1.5131,6.3958,6.3958,0,0,1,.4323,2.1615h0a7.7683,7.7683,0,0,1-.4323,2.3776,11.8808,11.8808,0,0,1-1.513,1.9453,6.7629,6.7629,0,0,1-2.1615,1.0808C98.4485,76.154,97.3678,76.37,96.5032,76.37Z"/><polygon id="Path-7" data-name="Path" class="cls-1" points="107.311 56.701 110.985 56.701 116.821 65.779 122.873 56.701 126.548 56.701 126.548 76.154 123.089 76.154 123.089 62.104 117.037 71.183 116.821 71.183 110.769 62.104 110.769 76.154 107.311 76.154 107.311 56.701"/><path id="Shape-3" data-name="Shape" class="cls-1" d="M138.22,56.4845h3.2422l8.43,19.4533h-3.6745l-1.9454-4.7552h-9.0782l-1.9453,4.7552H129.79Zm4.9714,11.8881-3.4584-7.7813-3.2422,7.7813Z"/><path id="Shape-4" data-name="Shape" class="cls-1" d="M153.35,56.7006h8.6459a16.6893,16.6893,0,0,1,3.2423.4323,5.5958,5.5958,0,0,1,2.3776,1.5131,7.5432,7.5432,0,0,1,1.2969,1.9453,7.7713,7.7713,0,0,1,.4323,2.3776h0a7.6808,7.6808,0,0,1-.4323,2.1615c-.2162.6485-.6485,1.0808-.8646,1.7292a9.4028,9.4028,0,0,1-1.513,1.2969,7.68,7.68,0,0,1-1.9454.8646l5.1876,7.349h-4.1068L160.9155,69.67h-4.323V76.37h-3.4584Zm8.43,9.5106a3.986,3.986,0,0,0,2.81-.8646,3.4711,3.4711,0,0,0,1.0808-2.3777h0a3.4707,3.4707,0,0,0-1.0808-2.3776,4.9621,4.9621,0,0,0-3.026-.8646h-4.9715v6.4845Z"/><polygon id="Path-8" data-name="Path" class="cls-1" points="178.207 59.727 171.939 59.727 171.939 56.701 187.718 56.701 187.718 59.727 181.45 59.727 181.45 76.154 177.991 76.154 178.207 59.727"/><path id="Path-9" data-name="Path" class="cls-1" d="M208.6844,76.37a8.4772,8.4772,0,0,1-3.8907-.8646,9.4,9.4,0,0,1-5.1876-5.1875,8.2239,8.2239,0,0,1-.6484-3.8907h0a12.24,12.24,0,0,1,.6484-3.8907,9.773,9.773,0,0,1,5.1876-5.4037,12.639,12.639,0,0,1,4.1068-.8646,8.1033,8.1033,0,0,1,2.3777.2162l1.9453.6484c.6484.2162,1.0807.6485,1.7292.8646.4323.4323,1.0807.8646,1.513,1.2969l-2.1615,2.5938a9.5947,9.5947,0,0,0-2.3776-1.7292,6.9037,6.9037,0,0,0-3.0261-.6484,10.8469,10.8469,0,0,0-2.5938.4323,7.7607,7.7607,0,0,0-2.1614,1.513,4.484,4.484,0,0,0-1.2969,2.1615,10.8469,10.8469,0,0,0-.4323,2.5938h0a10.8469,10.8469,0,0,0,.4323,2.5938,4.4841,4.4841,0,0,0,1.2969,2.1614,7.761,7.761,0,0,0,2.1614,1.5131,3.7206,3.7206,0,0,0,2.5938.4323,6.9038,6.9038,0,0,0,3.0261-.6485A10.1606,10.1606,0,0,0,214.52,70.318l2.1615,2.1615-1.5131,1.513a7.5828,7.5828,0,0,1-1.7292,1.0808,6.344,6.344,0,0,1-2.1614.6484,3.8989,3.8989,0,0,1-2.5938.6484Z"/><polygon id="Path-10" data-name="Path" class="cls-1" points="220.14 56.701 223.382 56.701 223.382 64.698 232.677 64.698 232.677 56.701 236.135 56.701 236.135 76.154 232.677 76.154 232.677 67.94 223.382 67.94 223.382 76.154 220.14 76.154 220.14 56.701"/><path id="Shape-5" data-name="Shape" class="cls-1" d="M248.0234,56.4845h3.2423l8.43,19.4533h-3.6746l-1.9453-4.7552h-9.0782l-1.9454,4.7552h-3.4584Zm4.7553,11.8881-3.2422-7.7813-3.2423,7.7813Z"/><polygon id="Path-11" data-name="Path" class="cls-1" points="263.154 56.701 266.612 56.701 266.612 76.154 263.154 76.154 263.154 56.701"/><polygon id="Path-12" data-name="Path" class="cls-1" points="271.8 56.701 274.826 56.701 285.201 70.102 285.201 56.701 288.659 56.701 288.659 76.154 285.849 76.154 275.258 62.32 275.258 76.154 271.8 76.154 271.8 56.701"/><path id="binancedex" class="cls-1" d="M50.68,74.8571v8.43L43.3306,87.61l-7.1329-4.323v-8.43l7.1329,4.323ZM11.3406,45.677,18.4735,50V64.482L30.794,71.831v8.43L11.3406,68.8049Zm63.98,0V68.8049L55.6511,80.2608v-8.43l12.32-7.349V50ZM55.6511,34.2211,63,38.5441h0v8.43L50.68,54.323V69.0211l-7.1329,4.323-7.1329-4.323V54.323L23.6611,46.9739v-8.43l7.349-4.323,12.32,7.3491Zm-31.99,18.805,7.1329,4.323v8.43l-7.1329-4.323Zm39.339,0v8.43l-7.1329,4.323v-8.43ZM18.4735,26.8721l7.3491,4.323L18.4735,35.518v8.43l-7.1329-4.3229v-8.43Zm49.7142,0,7.3491,4.323v8.43l-7.3491,4.3229v-8.43l-7.1329-4.3229Zm-24.8571,0,7.3491,4.323L43.3306,35.518l-7.1329-4.3229Zm0-14.482L63,23.846l-7.133,4.323L43.5468,20.82,31.01,28.169l-7.1329-4.323Z"/></svg>