<svg id="Layer_1" data-name="Layer 1" xmlns="http://www.w3.org/2000/svg" width="300" height="100" viewBox="0 0 300 100"><defs><style>.cls-1{fill:#9498a5;}</style></defs><path class="cls-1" d="M67.0175,39.0222a17.6535,17.6535,0,0,0-18.01,17.949c0,10.2743,7.7,17.8834,18.01,17.8834s18.1436-7.7405,18.1436-17.9491C85.1611,46.7626,77.4611,39.0222,67.0175,39.0222ZM67.0857,67.45c-5.7573,0-9.9761-4.4715-9.9761-10.4764,0-6.0731,4.1506-10.542,9.9079-10.542,5.8256,0,10.0419,4.5371,10.0419,10.542S72.8431,67.45,67.0857,67.45ZM87.3691,46.8308h5.0222V74.19h8.0334V39.6891H87.3691ZM28.79,46.4291a9.1336,9.1336,0,0,1,8.8369,6.4723H46.13c-1.541-8.2735-8.3694-13.8792-17.272-13.8792a17.6541,17.6541,0,0,0-18.01,17.9515c0,10.2768,7.7,17.8834,18.01,17.8834,8.703,0,15.6653-5.6058,17.2064-13.9475H37.6271A9.0558,9.0558,0,0,1,28.8559,67.45c-5.8255,0-9.908-4.4715-9.908-10.4764C18.9505,50.9006,22.9672,46.4291,28.79,46.4291Zm211.22,7.2074-5.8912-.8665c-2.8117-.3991-4.82-1.3338-4.82-3.5367,0-2.4025,2.6121-3.6025,6.159-3.6025,3.8828,0,6.3611,1.6674,6.8967,4.4033h7.7657c-.8716-6.94-6.2273-11.0094-14.46-11.0094-8.5034,0-14.1268,4.3376-14.1268,10.4764,0,5.871,3.6833,9.2764,11.113,10.3425l5.8912.8665c2.88.3991,4.4866,1.5359,4.4866,3.6706,0,2.7359-2.8117,3.87-6.6946,3.87-4.7544,0-7.4322-1.9351-7.8339-4.8706h-7.9c.7377,6.74,6.0251,11.4768,15.6653,11.4768,8.7712,0,14.5942-4.0041,14.5942-10.8781C250.8557,57.84,246.6394,54.6369,240.0105,53.6365ZM96.408,25.4764a5.0709,5.0709,0,1,0,5.1561,5.07A4.9714,4.9714,0,0,0,96.408,25.4764ZM214.3033,51.5019c0-7.4727-4.5523-12.4772-14.1925-12.4772-9.1046,0-14.1925,4.6053-15.1979,11.6789h7.9678c.4017-2.736,2.5439-5.0046,7.0962-5.0046,4.085,0,6.0934,1.8013,6.0934,4.0042,0,2.87-3.6833,3.6024-8.2356,4.07-6.159.6669-13.7909,2.8016-13.7909,10.81,0,6.207,4.62,10.2086,11.9846,10.2086,5.7573,0,9.3724-2.4025,11.1812-6.207.2678,3.4029,2.8117,5.6058,6.3611,5.6058h4.6862V67.051h-3.9511V51.5019Zm-7.9,8.6751c0,4.6054-4.0167,8.0083-8.905,8.0083-3.0138,0-5.5578-1.2682-5.5578-3.936,0-3.4028,4.085-4.3375,7.8339-4.7367,3.6151-.3335,5.6235-1.1343,6.6289-2.67ZM163.758,39.0222a14.0035,14.0035,0,0,0-10.9134,5.0045V25.1429h-8.0335V74.19h7.9V69.653a13.9341,13.9341,0,0,0,11.0473,5.2041c9.64,0,16.9385-7.6066,16.9385-17.8834S173.2643,39.0222,163.758,39.0222ZM162.553,67.45c-5.7574,0-9.9762-4.4715-9.9762-10.4764s4.2845-10.542,10.0419-10.542c5.8255,0,9.9079,4.4714,9.9079,10.542C172.5266,62.9786,168.31,67.45,162.553,67.45ZM125.5964,39.0222c-5.2218,0-8.6373,2.1346-10.6457,5.1384V39.6891h-7.9678V74.1876h8.0335v-18.75c0-5.2723,3.3473-9.0087,8.3013-9.0087,4.62,0,7.4979,3.269,7.4979,8.0083V74.19h8.0335V53.8386C138.8516,45.161,134.3675,39.0222,125.5964,39.0222ZM289.1512,55.8394c0-9.8751-7.23-16.8147-16.9385-16.8147-10.31,0-17.8758,7.74-17.8758,17.949,0,10.7442,8.1017,17.8834,18.01,17.8834,8.3695,0,14.93-4.9388,16.6025-11.9441H280.58c-1.205,3.0694-4.1506,4.8049-8.1016,4.8049-5.1561,0-9.039-3.2033-9.908-8.8091h26.5787V55.8394Zm-26.1113-2.67a8.99,8.99,0,0,1,9.0389-7.1392c4.5523,0,8.0335,2.602,8.8369,7.1392Z"/></svg>