<svg id="Layer_1" data-name="Layer 1" xmlns="http://www.w3.org/2000/svg" width="300" height="100" viewBox="0 0 300 100"><defs><style>.cls-1{fill:#1b2143;}.cls-1,.cls-2{fill-rule:evenodd;}.cls-2{fill:#2483ff;}</style></defs><path class="cls-1" d="M59.4532,39.6062V51.9211H47.3014V41.19a1.5847,1.5847,0,0,0-1.5851-1.5842H41.6148V68.9529A1.5847,1.5847,0,0,0,43.2,70.5375h4.1015v-13.65H59.4532V68.9529a1.5847,1.5847,0,0,0,1.5852,1.5846H65.14V41.19a1.5846,1.5846,0,0,0-1.5854-1.5842Z"/><path class="cls-1" d="M83.3064,46.8985V61.556a3.7516,3.7516,0,0,1-1.8331,3.2607A4.2441,4.2441,0,0,1,74.9209,61.29V48.4827a1.5846,1.5846,0,0,0-1.5851-1.5842H69.2179v14.914a8.7524,8.7524,0,0,0,8.7287,8.725h2.3341a8.7522,8.7522,0,0,0,8.7287-8.725v-13.33a1.5843,1.5843,0,0,0-1.5847-1.5842Z"/><path class="cls-2" d="M146.5594,70.5375h4.1015V49.7808a1.585,1.585,0,0,0-1.5852-1.5846h-4.1013V68.9529A1.5847,1.5847,0,0,0,146.5594,70.5375Z"/><path class="cls-2" d="M147.8175,45.9469a3.1722,3.1722,0,1,0-3.1735-3.1724A3.1731,3.1731,0,0,0,147.8175,45.9469Z"/><path class="cls-1" d="M109.0217,60.7229c0,2.82-2.3078,4.6971-5.1291,4.6971s-5.13-1.8772-5.13-4.6971V56.6987c0-2.82,2.3082-4.6973,5.13-4.6973s5.1291,1.8772,5.1291,4.6973ZM103.8926,46.884c-5.965,0-10.8454,4.265-10.8454,10.227v3.2248c0,5.9621,4.88,10.2017,10.8454,10.2017s10.8454-4.24,10.8454-10.2017V57.111C114.738,51.149,109.8572,46.884,103.8926,46.884Z"/><path class="cls-2" d="M134.8335,60.7227c0,2.82-2.3082,4.6973-5.1295,4.6973s-5.13-1.8772-5.13-4.6973v-4.024c0-2.82,2.3086-4.6973,5.13-4.6973s5.1295,1.8772,5.1295,4.6973ZM129.704,46.884a11.6807,11.6807,0,0,0-5.1585,1.1715V41.164A1.5849,1.5849,0,0,0,122.96,39.58h-4.1017V60.3358c0,5.9623,4.8806,10.2017,10.8454,10.2017s10.8454-4.2394,10.8454-10.2017V57.111C140.5494,51.149,135.669,46.884,129.704,46.884Z"/><path class="cls-1" d="M248.2238,60.8207c0,2.7908-2.2845,4.6488-5.076,4.6488-2.7936,0-5.0781-1.858-5.0781-4.6488V56.8378c0-2.7908,2.2845-4.6486,5.0781-4.6486,2.7915,0,5.076,1.8578,5.076,4.6486Zm-5.076-13.6962h0a11.5614,11.5614,0,0,0-5.1057,1.1588V41.169a1.5687,1.5687,0,0,0-1.57-1.5679h-4.0581V60.4378c0,5.9007,4.8295,10.0963,10.7342,10.0963h0c5.9026,0,10.7321-4.1956,10.7321-10.0963v-3.192C253.88,51.3453,249.05,47.1245,243.1478,47.1245Z"/><path class="cls-1" d="M293.7921,70.4282V66.8591a1.5242,1.5242,0,0,0-1.529-1.5259c-.8562.0029-1.9294.0057-2.8349.0057-2.31,0-2.2037-1.1545-2.2037-4.1477V41.1531A1.5254,1.5254,0,0,0,285.7,39.6268h-4.1647V61.8754c0,5.388,1.3909,8.5528,7.2087,8.5528,2.249,0,3.8786-.0637,5.0485,0Z"/><path class="cls-1" d="M184.8031,52.0509H173.7993v2.997a1.6315,1.6315,0,0,0,1.6316,1.6313h5.2269v2.65a5.9537,5.9537,0,0,1-1.4977,4.4144,7.2147,7.2147,0,0,1-9.5554.2831c-1.491-1.4609-1.8124-3.0473-1.8124-8.9357,0-5.855.3214-7.4342,1.8118-8.8936a7.9474,7.9474,0,0,1,5.025-1.885c6.0153,0,8.0355,2.1339,9.5427,4.0769h.1971V44.0441A2.1137,2.1137,0,0,0,183.56,42.4c-2.52-2.016-5.0319-2.7528-9.3579-2.7528a12.8231,12.8231,0,0,0-8.8783,3.2613c-3.3106,2.9879-3.31,6.3592-3.3094,11.9442v.4753c-.0008,5.5851-.0012,8.956,3.3094,11.9439a13.7611,13.7611,0,0,0,18.0866-.2571l.0008-.0008c2.1476-2.0616,3.0236-6.01,3.0236-10.1148V53.6819A1.6316,1.6316,0,0,0,184.8031,52.0509Z"/><path class="cls-1" d="M202.7331,70.4282V66.8591a1.5241,1.5241,0,0,0-1.53-1.5259c-.8552.0029-1.928.0057-2.8347.0057-2.31,0-2.2027-1.1545-2.2027-4.1477V41.1531a1.5262,1.5262,0,0,0-1.5262-1.5263h-4.1634V61.8754c0,5.388,1.3894,8.5528,7.2079,8.5528,2.2482,0,3.8791-.0637,5.0482,0Z"/><path class="cls-1" d="M222.6482,60.8207c0,2.7908-2.2846,4.6488-5.0761,4.6488s-5.0761-1.858-5.0761-4.6488V56.838c0-2.7908,2.2846-4.6488,5.0761-4.6488s5.0761,1.858,5.0761,4.6488Zm-5.0761-13.6961c-5.9027,0-10.7341,4.2209-10.7341,10.1214v3.1918c0,5.9009,4.8314,10.0963,10.7341,10.0963,5.9047,0,10.7341-4.1954,10.7341-10.0963V57.246C228.3062,51.3455,223.4768,47.1246,217.5721,47.1246Z"/><path class="cls-1" d="M271.8365,59.9375v5.8739c-.4379.0848-.9233.1525-1.448.2006a19.6411,19.6411,0,0,1-3.7819.0213,4.0454,4.0454,0,0,1-1.44-.3945,2.7519,2.7519,0,0,1-1.04-.901,2.87,2.87,0,0,1-.4044-1.6608,2.7044,2.7044,0,0,1,1.2291-2.4689,7.4328,7.4328,0,0,1,3.9693-.8578q.7072,0,1.7282.0809C271.0928,59.8667,271.4913,59.9022,271.8365,59.9375Zm3.0441-10.8237c-1.6868-1.3465-4.1528-2.029-7.331-2.029a28.0522,28.0522,0,0,0-3.6911.2553c-1.016.1356-2.4562.33-3.4545.56-.4044.0933-.4794.4113-.4794.792v3.0364c0,.5411.0059,1.0334.58.8937,1.0693-.26,3.1427-.72,3.707-.8126a17.8373,17.8373,0,0,1,2.8823-.22,6.34,6.34,0,0,1,3.6063.8442,3.4234,3.4234,0,0,1,1.1363,2.9829v.1758c-.2841-.0261-.5938-.0511-.9331-.0738q-.9529-.0642-2.44-.0645a16.3515,16.3515,0,0,0-3.8963.4561,10.8059,10.8059,0,0,0-3.342,1.4161,7.3731,7.3731,0,0,0-2.3457,2.4331,6.5868,6.5868,0,0,0-.87,3.4015,7.1217,7.1217,0,0,0,.7438,3.3607,6.311,6.311,0,0,0,2.1267,2.3264,9.3234,9.3234,0,0,0,3.2749,1.2985,20.679,20.679,0,0,0,4.1725.388c1.1127,0,9.13-.1128,9.13-3.9267V55.5821C277.4571,52.6564,276.591,50.48,274.8806,49.1138Z"/><path class="cls-1" d="M24.5878,41.7532c0-6.16-3.0019-11.4564-5.2852-13.1813-.0094-.0054-.1747-.0983-.1606.148l-.0033.0076c-.19,11.8925-6.2679,15.1158-9.61,19.4578-7.7117,10.02-.54,21.0059,6.7633,23.0363,4.0864,1.1362-.9437-2.01-1.5914-8.6557C13.9176,54.5335,24.5878,48.4024,24.5878,41.7532Z"/><path class="cls-2" d="M28.0919,45.8022c-.0468-.0318-.1135-.0535-.1592.0224-.1257,1.497-1.6556,4.6994-3.5947,7.64-6.577,9.9742-2.829,14.7823-.7216,17.3647,1.2238,1.4992,0,0,3.0588-1.532A13.783,13.783,0,0,0,33.2634,58.65,15.4214,15.4214,0,0,0,28.0919,45.8022Z"/></svg>