<svg id="Layer_1" data-name="Layer 1" xmlns="http://www.w3.org/2000/svg" width="300" height="100" viewBox="0 0 300 100"><defs><style>.cls-1,.cls-2{fill:#23af91;}.cls-2{fill-rule:evenodd;}</style></defs><g id="KUCOIN-logo-3.0"><path id="形状" class="cls-1" d="M229.8934,50.0065c0-1.6408,0-3.1842-.0531-4.61a27.98,27.98,0,0,0-.3984-4.0105,13.5271,13.5271,0,0,0-1.1244-3.4941,11.3124,11.3124,0,0,0-2.2192-3.0751A14.1937,14.1937,0,0,0,221.589,31.71a14.7869,14.7869,0,0,0-5.7605-1.08,14.9952,14.9952,0,0,0-5.7842,1.08,14.0784,14.0784,0,0,0-4.5358,3.0928,11.2129,11.2129,0,0,0-2.21,3.075,13.3837,13.3837,0,0,0-1.1067,3.4941,28.0437,28.0437,0,0,0-.3837,4.0105c-.0354,1.4254-.0531,2.9688-.0442,4.61s0,3.1725.0442,4.6067a28.0437,28.0437,0,0,0,.3837,4.0105,13.3813,13.3813,0,0,0,1.1067,3.4941,11.3458,11.3458,0,0,0,2.21,3.075,13.9213,13.9213,0,0,0,4.5358,3.0869,14.8837,14.8837,0,0,0,5.7842,1.086,14.6756,14.6756,0,0,0,5.7605-1.086,14.0309,14.0309,0,0,0,4.5093-3.0869,11.4507,11.4507,0,0,0,2.2192-3.075,13.5271,13.5271,0,0,0,1.1244-3.4941,27.9586,27.9586,0,0,0,.3924-3.9987c.0443-1.4342.065-2.9688.0532-4.6067Zm-7.4368,0c0,1.8179-.0265,3.3318-.0885,4.5358a23.0141,23.0141,0,0,1-.2951,2.9511,7.2793,7.2793,0,0,1-.59,1.88,5.3747,5.3747,0,0,1-.8854,1.3191,5.713,5.713,0,0,1-2.0126,1.4755,6.885,6.885,0,0,1-2.7475.555,7.0021,7.0021,0,0,1-2.7622-.555,5.73,5.73,0,0,1-2.0657-1.4755,5.1912,5.1912,0,0,1-.8854-1.3191,7.083,7.083,0,0,1-.5607-1.88,24.6413,24.6413,0,0,1-.2951-2.9511q-.08-1.806-.08-4.5358c0-1.8179.0266-3.3347.08-4.5388a24.6846,24.6846,0,0,1,.2951-2.9511,7.0823,7.0823,0,0,1,.5607-1.88,5.2378,5.2378,0,0,1,.8854-1.3191,5.7666,5.7666,0,0,1,2.0657-1.4756,6.8463,6.8463,0,0,1,2.7622-.5548,6.7345,6.7345,0,0,1,2.7475.5548,5.748,5.748,0,0,1,2.0126,1.4756,5.43,5.43,0,0,1,.8854,1.3191,7.2786,7.2786,0,0,1,.59,1.88,23.0878,23.0878,0,0,1,.2951,2.9511C222.433,46.6688,222.4566,48.1857,222.4566,50.0065Z"/><path id="路径" class="cls-1" d="M289.1512,31.6153a.658.658,0,0,0-.6521-.6522h-6.1353a.6553.6553,0,0,0-.6523.6522V54.28L266.75,31.1461c-.1-.1564-.1888-.183-.41-.183h-5.69a.6611.6611,0,0,0-.6522.6522V68.3918a.6581.6581,0,0,0,.6522.6492h6.1324a.6521.6521,0,0,0,.6492-.6492V45.6684l14.965,23.1867c.1033.1564.1859.183.41.183h5.6868a.6551.6551,0,0,0,.6521-.6493Z"/><path id="路径-2" data-name="路径" class="cls-1" d="M248.0249,31.6153a.6552.6552,0,0,0-.6522-.6522h-6.1294a.6551.6551,0,0,0-.6522.6522V68.3888a.655.655,0,0,0,.6522.6522h6.1294a.6552.6552,0,0,0,.6522-.6522Z"/><path id="路径-3" data-name="路径" class="cls-1" d="M174.649,50.0065c0-1.83.0206-3.3524.0738-4.5653a23.4747,23.4747,0,0,1,.2951-2.9511,6.4531,6.4531,0,0,1,11.4709-2.659,8.4373,8.4373,0,0,1,1.18,2.6914.1976.1976,0,0,0,.2125.1623h7.2154c.1033,0,.1416-.0708.1239-.1711-.7879-4.465-3.1695-8.4755-7.3777-10.4616a15.165,15.165,0,0,0-6.6045-1.4018,13.9543,13.9543,0,0,0-10.2669,4.1728,11.0166,11.0166,0,0,0-3.11,5.7133,52.5864,52.5864,0,0,0-.6434,9.4671,51.0974,51.0974,0,0,0,.6434,9.4642,11.0338,11.0338,0,0,0,3.1016,5.7251,13.9531,13.9531,0,0,0,10.2668,4.17,15.2064,15.2064,0,0,0,6.6045-1.3988c4.2083-1.9861,6.59-5.9966,7.3778-10.4616.0177-.1033-.0207-.1712-.124-.1712H187.87a.1948.1948,0,0,0-.2125.1623,8.4452,8.4452,0,0,1-1.18,2.6885,6.4535,6.4535,0,0,1-11.4708-2.656,23.5515,23.5515,0,0,1-.2952-2.9511C174.67,53.356,174.649,51.83,174.649,50.0065Z"/><path id="路径-4" data-name="路径" class="cls-1" d="M98.44,31.6153a.6551.6551,0,0,0-.6522-.6522H91.6584a.6551.6551,0,0,0-.6521.6522V68.3918a.6557.6557,0,0,0,.6521.65h6.1294a.6557.6557,0,0,0,.6522-.65V57.5967l4.9195-5.8815L113.464,68.8463a.4114.4114,0,0,0,.366.1951h7.4485c.3423,0,.4043-.2129.2332-.505l-13.23-22.4283L120.42,31.5474c.2449-.2951.1416-.5754-.242-.5754h-8.1421a.2949.2949,0,0,0-.2538.118L98.44,47.0908Z"/><path id="路径-5" data-name="路径" class="cls-1" d="M143.0959,62.7316a6.9632,6.9632,0,0,1-6.578-7.0059v-24.11a.6551.6551,0,0,0-.6521-.6522h-6.13a.6551.6551,0,0,0-.6521.6522v24.016c0,8.3958,6.28,13.7314,14.0117,13.7314s14.0118-5.3356,14.0118-13.7314V31.6153a.658.658,0,0,0-.6522-.6522h-6.1324a.6551.6551,0,0,0-.6492.6522v24.11A6.9672,6.9672,0,0,1,143.0959,62.7316Z"/><path id="形状-2" data-name="形状" class="cls-2" d="M29.3934,50.0065,48.422,69.0381l12.011-12.011A5.433,5.433,0,0,1,68.1058,64.7l-15.85,15.8532a5.4712,5.4712,0,0,1-7.6728,0L21.7147,57.6793V71.275a5.433,5.433,0,1,1-10.8659,0V28.72a5.433,5.433,0,1,1,10.8659,0V42.316L44.58,19.448a5.4682,5.4682,0,0,1,7.6728,0l15.8621,15.85a5.4329,5.4329,0,0,1-7.6728,7.6728L48.4309,30.96Zm19.0375-5.4389h0a2.2528,2.2528,0,1,0,0-.0029Z"/></g></svg>