<svg id="Layer_1" data-name="Layer 1" xmlns="http://www.w3.org/2000/svg" width="300" height="100" viewBox="0 0 300 100"><defs><style>.cls-1,.cls-2{fill:#9498a5;}.cls-2{opacity:0.6;}</style></defs><path class="cls-1" d="M162.9652,49.9288a19.9329,19.9329,0,0,1-1.1893,6.9851,16.8174,16.8174,0,0,1-3.4256,5.7288,16.2859,16.2859,0,0,1-5.5194,3.9114,18.1686,18.1686,0,0,1-7.4793,1.4322,18.7283,18.7283,0,0,1-7.4792-1.4322,16.2853,16.2853,0,0,1-5.5195-3.9114,16.8167,16.8167,0,0,1-3.4255-5.7288,21.6852,21.6852,0,0,1,0-13.97,16.523,16.523,0,0,1,3.4255-5.7623,16.7045,16.7045,0,0,1,5.5195-3.9113,18.1662,18.1662,0,0,1,7.4792-1.4322,18.7275,18.7275,0,0,1,7.4793,1.4322,16.2843,16.2843,0,0,1,5.5194,3.9113,17.1847,17.1847,0,0,1,3.4256,5.7623A20.2019,20.2019,0,0,1,162.9652,49.9288Zm-17.58,12.337a9.9439,9.9439,0,0,0,4.4725-.9464,9.2586,9.2586,0,0,0,3.2162-2.588,11.1607,11.1607,0,0,0,1.918-3.9113,19.359,19.359,0,0,0,0-9.7825,11.091,11.091,0,0,0-1.918-3.9114,8.8254,8.8254,0,0,0-3.2162-2.588,10.046,10.046,0,0,0-4.4725-.9464,9.9455,9.9455,0,0,0-4.4725.9464,9.2573,9.2573,0,0,0-3.2161,2.588,11.1586,11.1586,0,0,0-1.918,3.9114,19.3561,19.3561,0,0,0,0,9.7825,11.088,11.088,0,0,0,1.918,3.9113,8.8242,8.8242,0,0,0,3.2161,2.588A9.9442,9.9442,0,0,0,145.3851,62.2658ZM167.58,67.4V32.4576h7.3369v16.776l12.1277-16.776h8.4926L182.681,49.7194,196.4167,67.4h-9.0874L174.8918,50.2387V67.4Zm31.76-34.9424h21.0056v5.8377H206.7185v8.4592h12.9986v5.8042H206.7185v9.012h13.8027V67.4h-21.14V32.4576Zm47.1788,0h7.9651L242.9841,49.8283,254.693,67.4h-8.04l-7.5463-11.9183L231.56,67.4h-8.04l11.7088-17.58L223.729,32.4493h7.965l7.4123,11.8093Z"/><circle class="cls-2" cx="82.3516" cy="29.7356" r="16.776"/><circle class="cls-2" cx="82.3516" cy="70.2644" r="16.776"/><circle class="cls-2" cx="102.6118" cy="50.0042" r="16.776"/><circle class="cls-2" cx="62.083" cy="50.0042" r="16.776"/><path class="cls-2" d="M78.3984,46.051a16.771,16.771,0,0,1-12.337-12.337A16.8889,16.8889,0,0,1,78.3984,46.051Z"/><path class="cls-2" d="M66.0279,66.32a16.771,16.771,0,0,1,12.337-12.337A16.8758,16.8758,0,0,1,66.0279,66.32Z"/><path class="cls-2" d="M86.2964,53.949a16.771,16.771,0,0,1,12.337,12.337,16.8758,16.8758,0,0,1-12.337-12.337Z"/><path class="cls-2" d="M98.6669,33.6805A16.771,16.771,0,0,1,86.33,46.0175a16.8888,16.8888,0,0,1,12.337-12.337Z"/></svg>