<svg id="Layer_1" data-name="Layer 1" xmlns="http://www.w3.org/2000/svg" width="300" height="100" viewBox="0 0 300 100"><defs><style>.cls-1{fill:#de5959;}</style></defs><path class="cls-1" d="M48.4831,49.374l-.6993-.7155a.8457.8457,0,0,0-1.4472.6016V59.3907a.85.85,0,0,0,.8456.8456h10.13a.8493.8493,0,0,0,.6017-1.4473.864.864,0,0,1,0-1.2033L68.6791,46.7885a.864.864,0,0,0,0-1.2033l-.9756-.9757a.8492.8492,0,0,1,.6016-1.4472H78.4194a.84.84,0,0,1,.8456.8456v10.13a.8492.8492,0,0,1-1.4472.6017l-.683-.683a.8347.8347,0,0,0-1.2033,0L57.768,72.2043a.864.864,0,0,1-1.2033,0L34.3523,49.9756a.8489.8489,0,0,1,0-1.2033h0L65.1017,18.0229a.864.864,0,0,0,0-1.2033L57.8656,9.5835a.864.864,0,0,0-1.2033,0l-39.79,39.823a.864.864,0,0,0,0,1.2033L56.6786,90.4165a.864.864,0,0,0,1.2033,0L97.6886,50.61a.864.864,0,0,0,0-1.2033L74.2729,25.9908a.8638.8638,0,0,0-1.2033,0L49.6864,49.374a.864.864,0,0,1-1.2033,0ZM232.2315,59.44a3.7758,3.7758,0,0,0-3.7563,3.7237,3.94,3.94,0,0,0,2.3416,3.5937,3.8737,3.8737,0,0,0,4.0977-.8944A3.6459,3.6459,0,0,0,236.02,63.18a3.5587,3.5587,0,0,0-1.1058-2.65,3.7335,3.7335,0,0,0-2.683-1.09ZM171.7408,30.82h-2.8131a2.1861,2.1861,0,0,0-2.1952,2.1953v1.561a13.7353,13.7353,0,0,0-10.1468-4.6506,14.0256,14.0256,0,0,0-10.8949,4.862,17.4669,17.4669,0,0,0-4.3579,12.1307,18.1283,18.1283,0,0,0,4.3417,12.3745,14.3508,14.3508,0,0,0,21.0416.5366v3.09a2.7344,2.7344,0,0,0,2.7156,2.7318h4.797v-32.31A2.4951,2.4951,0,0,0,171.7408,30.82Zm-7.09,23.7735a8.6086,8.6086,0,0,1-6.7158,2.8619,8.1835,8.1835,0,0,1-6.4556-2.9595,11.3224,11.3224,0,0,1-2.5042-7.5775,10.8037,10.8037,0,0,1,2.5693-7.3175A8.2745,8.2745,0,0,1,158,36.6742a8.44,8.44,0,0,1,6.6507,2.8944,11.0546,11.0546,0,0,1,2.5692,7.5126,11.2183,11.2183,0,0,1-2.5692,7.5125Zm-23.3182-18.31V33.0805a2.2555,2.2555,0,0,0-2.26-2.26h-2.9595a2.2555,2.2555,0,0,0-2.26,2.26V34.479A13.0507,13.0507,0,0,0,123.6736,29.91a13.7578,13.7578,0,0,0-11.2363,5.2523,18.6968,18.6968,0,0,0-3.9514,12.0331,17.65,17.65,0,0,0,4.26,12.1306,13.7491,13.7491,0,0,0,10.8461,4.7808,13.982,13.982,0,0,0,10.2769-4.5531v4.5205q0,10.0737-8.2118,10.0818a8.0181,8.0181,0,0,1-6.7808-3.0245,6.6386,6.6386,0,0,1-.9919-1.9188,2.6438,2.6438,0,0,0-2.5042-1.7725h-2.8294a2.2066,2.2066,0,0,0-2.13,2.7481,13.6233,13.6233,0,0,0,4.5043,7.1874,16.1386,16.1386,0,0,0,10.6672,3.4961q7.6831,0,12.0656-5.0572a13.8552,13.8552,0,0,0,3.1221-6.293,27.0489,27.0489,0,0,0,.4227-3.0733c.0976-1.1545.1464-2.5042.1464-4.0327V57.7158a18.4951,18.4951,0,0,1-3.1546-10.83,17.7975,17.7975,0,0,1,3.1383-10.6021Zm-9.48,18.05a8.205,8.205,0,0,1-6.7808,3.1221,8.0366,8.0366,0,0,1-6.7158-3.0895,11.3817,11.3817,0,0,1-2.2277-7.2524,11.51,11.51,0,0,1,2.2277-7.3174,8.084,8.084,0,0,1,6.7158-3.1546,8.3322,8.3322,0,0,1,6.5532,2.8944,10.8891,10.8891,0,0,1,2.5367,7.5451,11.2613,11.2613,0,0,1-2.3091,7.2523Zm71.6781-23.4807V30.82H188.018V21.3239a2.2138,2.2138,0,0,0-2.2115-2.2115H182.782a2.2485,2.2485,0,0,0-2.244,2.244V30.82h-3.1871v6.976h3.1871V65.6186h4.26a3.2236,3.2236,0,0,0,3.22-3.2034V37.8124h7.6752a16.057,16.057,0,0,1,2.2114-3.2034,13.6363,13.6363,0,0,1,5.6263-3.7562Zm38.1807-11.74a4.6061,4.6061,0,0,0-3.4148,1.4309,4.6854,4.6854,0,0,0-1.431,3.3986,4.8859,4.8859,0,0,0,4.8946,4.927,4.5557,4.5557,0,0,0,3.4148-1.4309,4.6883,4.6883,0,0,0,1.4309-3.4636,4.5556,4.5556,0,0,0-1.4309-3.4148A4.6671,4.6671,0,0,0,241.7116,19.1124Zm1.5123,15.3828h-2.7156a2.5122,2.5122,0,0,0-2.52,2.5205V60.7729a3.5413,3.5413,0,0,1,.8455,2.3741,3.5835,3.5835,0,0,1-.8455,2.39v1.3334h4.8132a2.6684,2.6684,0,0,0,2.6668-2.6668V36.723a2.2347,2.2347,0,0,0-2.244-2.2278Zm35.1723,4.5856a17.7169,17.7169,0,0,0-24.554-.0325,16.0807,16.0807,0,0,0-5.0246,11.9355,16.79,16.79,0,0,0,4.9271,12.3745A16.4944,16.4944,0,0,0,265.94,68.3505a17.1383,17.1383,0,0,0,12.4071-4.8946,16.4717,16.4717,0,0,0,5.0246-12.2119,16.4847,16.4847,0,0,0-4.9759-12.1632Zm-5.301,19.757a10.0943,10.0943,0,0,1-14.0332-.0488,10.9687,10.9687,0,0,1-2.6017-7.6751,10.4206,10.4206,0,0,1,2.6668-7.3825,9.0486,9.0486,0,0,1,6.9434-2.8619,9.1426,9.1426,0,0,1,7.0084,2.8619,10.6386,10.6386,0,0,1,2.6343,7.5451,10.5991,10.5991,0,0,1-2.618,7.5613Z"/><path class="cls-1" d="M206.3116,57.5207a9.7091,9.7091,0,0,1-2.6018-6.3418H225.158a1.8015,1.8015,0,0,0,1.8049-1.7562c0-5.35-1.3821-9.5289-4.114-12.5371q-4.1709-4.5612-11.3176-4.5531a14.6819,14.6819,0,0,0-11.3664,4.6832q-4.2684,4.7562-4.26,12.44,0,7.7563,4.39,12.44a14.26,14.26,0,0,0,7.5126,4.2278,15.9586,15.9586,0,0,0,3.8375.4228c5.3336.1138,9.968.2276,15.2853.3252V66.09a3.6579,3.6579,0,0,1-.9756-2.553,3.5665,3.5665,0,0,1,1.0081-2.52v-.9431c-4.2116-.0976-14.3909-.2114-14.7974-.2114a7.866,7.866,0,0,1-5.8539-2.3416Zm-1.0407-14.96a7.7086,7.7086,0,0,1,1.6749-1.87,7.32,7.32,0,0,1,2.1789-1.2033,7.8121,7.8121,0,0,1,2.5693-.4228q5.9759,0,7.545,5.9841H204.1977a9.5813,9.5813,0,0,1,1.0732-2.488Z"/></svg>